<?xml version="1.0" encoding="UTF-8"?>
<svg xmlns="http://www.w3.org/2000/svg" xmlns:xlink="http://www.w3.org/1999/xlink" width="20px" height="20px" viewBox="0 0 20 20" version="1.1">
<g id="surface1">
<path style=" stroke:none;fill-rule:nonzero;fill:rgb(0%,0%,0%);fill-opacity:1;" d="M 11.574219 12.582031 C 11.394531 12.582031 11.246094 12.730469 11.246094 12.910156 L 11.246094 16.234375 L 2.929688 16.234375 L 2.929688 7.917969 L 5.46875 7.917969 C 5.648438 7.917969 5.796875 7.769531 5.796875 7.585938 C 5.796875 7.40625 5.648438 7.257812 5.46875 7.257812 L 2.929688 7.257812 L 2.929688 5.859375 C 2.929688 5.28125 3.402344 4.808594 3.980469 4.808594 L 4.457031 4.808594 C 4.636719 4.808594 4.785156 4.660156 4.785156 4.480469 C 4.785156 4.296875 4.636719 4.148438 4.457031 4.148438 L 3.980469 4.148438 C 3.039062 4.148438 2.269531 4.917969 2.269531 5.859375 L 2.269531 18.289062 C 2.269531 19.234375 3.039062 20 3.980469 20 L 10.195312 20 C 11.136719 20 11.90625 19.234375 11.90625 18.289062 L 11.90625 12.910156 C 11.90625 12.730469 11.757812 12.582031 11.574219 12.582031 Z M 10.195312 19.339844 L 3.980469 19.339844 C 3.402344 19.339844 2.929688 18.867188 2.929688 18.289062 L 2.929688 16.894531 L 11.246094 16.894531 L 11.246094 18.289062 C 11.246094 18.867188 10.773438 19.339844 10.195312 19.339844 Z M 10.195312 19.339844 "/>
<path style=" stroke:none;fill-rule:nonzero;fill:rgb(0%,0%,0%);fill-opacity:1;" d="M 8.597656 4.628906 C 8.117188 4.550781 8.097656 4.503906 8.097656 4.40625 C 8.097656 4.230469 8.390625 4.1875 8.542969 4.1875 C 8.792969 4.1875 8.953125 4.269531 8.980469 4.351562 C 9.042969 4.523438 9.230469 4.613281 9.402344 4.550781 C 9.574219 4.488281 9.664062 4.296875 9.601562 4.128906 C 9.46875 3.757812 9.0625 3.527344 8.542969 3.527344 C 7.890625 3.527344 7.4375 3.886719 7.4375 4.40625 C 7.4375 5.109375 8.097656 5.214844 8.488281 5.28125 C 8.96875 5.359375 8.988281 5.40625 8.988281 5.503906 C 8.988281 5.679688 8.699219 5.722656 8.542969 5.722656 C 8.296875 5.722656 8.136719 5.640625 8.105469 5.558594 C 8.042969 5.386719 7.855469 5.296875 7.683594 5.359375 C 7.511719 5.421875 7.421875 5.609375 7.484375 5.78125 C 7.621094 6.152344 8.023438 6.382812 8.542969 6.382812 C 9.195312 6.382812 9.648438 6.023438 9.648438 5.503906 C 9.648438 4.800781 8.988281 4.695312 8.597656 4.628906 Z M 8.597656 4.628906 "/>
<path style=" stroke:none;fill-rule:nonzero;fill:rgb(0%,0%,0%);fill-opacity:1;" d="M 14.660156 4.628906 C 14.183594 4.550781 14.164062 4.503906 14.164062 4.40625 C 14.164062 4.230469 14.453125 4.1875 14.609375 4.1875 C 14.855469 4.1875 15.015625 4.269531 15.046875 4.351562 C 15.109375 4.523438 15.296875 4.613281 15.46875 4.550781 C 15.640625 4.488281 15.730469 4.296875 15.667969 4.128906 C 15.53125 3.757812 15.128906 3.527344 14.609375 3.527344 C 13.957031 3.527344 13.503906 3.886719 13.503906 4.40625 C 13.503906 5.109375 14.160156 5.214844 14.554688 5.28125 C 15.035156 5.359375 15.054688 5.40625 15.054688 5.503906 C 15.054688 5.679688 14.761719 5.722656 14.609375 5.722656 C 14.359375 5.722656 14.199219 5.640625 14.171875 5.558594 C 14.109375 5.386719 13.917969 5.296875 13.75 5.359375 C 13.578125 5.421875 13.488281 5.609375 13.550781 5.78125 C 13.683594 6.152344 14.089844 6.382812 14.609375 6.382812 C 15.261719 6.382812 15.714844 6.023438 15.714844 5.503906 C 15.714844 4.800781 15.054688 4.695312 14.660156 4.628906 Z M 14.660156 4.628906 "/>
<path style=" stroke:none;fill-rule:nonzero;fill:rgb(0%,0%,0%);fill-opacity:1;" d="M 12.628906 3.546875 C 12.5 3.5 12.351562 3.539062 12.261719 3.640625 L 11.574219 4.449219 L 10.890625 3.640625 C 10.800781 3.539062 10.652344 3.5 10.523438 3.546875 C 10.394531 3.59375 10.308594 3.71875 10.308594 3.855469 L 10.308594 6.054688 C 10.308594 6.234375 10.457031 6.382812 10.636719 6.382812 C 10.820312 6.382812 10.96875 6.234375 10.96875 6.054688 L 10.96875 4.75 L 11.324219 5.167969 C 11.386719 5.242188 11.480469 5.285156 11.574219 5.285156 C 11.671875 5.285156 11.765625 5.242188 11.828125 5.167969 L 12.183594 4.75 L 12.183594 6.054688 C 12.183594 6.234375 12.332031 6.382812 12.515625 6.382812 C 12.695312 6.382812 12.84375 6.234375 12.84375 6.054688 L 12.84375 3.855469 C 12.84375 3.71875 12.757812 3.59375 12.628906 3.546875 Z M 12.628906 3.546875 "/>
<path style=" stroke:none;fill-rule:nonzero;fill:rgb(0%,0%,0%);fill-opacity:1;" d="M 15.898438 1.425781 C 14.742188 0.507812 13.207031 0 11.574219 0 C 9.945312 0 8.410156 0.507812 7.253906 1.425781 C 6.074219 2.363281 5.421875 3.617188 5.421875 4.957031 C 5.421875 7.304688 7.441406 9.308594 10.265625 9.796875 C 10.316406 10.53125 10.050781 11.257812 9.53125 11.78125 C 9.4375 11.875 9.410156 12.015625 9.460938 12.136719 C 9.515625 12.261719 9.632812 12.339844 9.765625 12.339844 C 11.273438 12.339844 12.570312 11.265625 12.875 9.800781 C 15.703125 9.3125 17.730469 7.308594 17.730469 4.957031 C 17.730469 3.617188 17.078125 2.363281 15.898438 1.425781 Z M 12.535156 9.183594 C 12.363281 9.210938 12.238281 9.363281 12.25 9.535156 C 12.25 9.535156 12.25 9.539062 12.25 9.539062 C 12.101562 10.507812 11.40625 11.285156 10.511719 11.566406 C 10.855469 10.957031 10.996094 10.242188 10.898438 9.535156 C 10.910156 9.363281 10.789062 9.207031 10.617188 9.183594 C 7.988281 8.820312 6.082031 7.042969 6.082031 4.957031 C 6.082031 2.585938 8.546875 0.660156 11.574219 0.660156 C 14.605469 0.660156 17.070312 2.585938 17.070312 4.957031 C 17.070312 7.042969 15.164062 8.824219 12.535156 9.183594 Z M 12.535156 9.183594 "/>
</g>
</svg>
